<?xml version="1.0" encoding="UTF-8"?>
<svg id="Layer_1" data-name="Layer 1" xmlns="http://www.w3.org/2000/svg" xmlns:xlink="http://www.w3.org/1999/xlink" viewBox="0 0 354 58.97">
  <defs>
    <style>
      .cls-1 {
        fill: none;
      }

      .cls-2 {
        clip-path: url(#clippath);
      }

      .cls-3 {
        fill: #fff;
      }

      .cls-4 {
        fill: #3eaaf5;
      }

      .cls-5 {
        fill: #0571bc;
      }
    </style>
    <clipPath id="clippath">
      <rect class="cls-1" width="354" height="58.97"/>
    </clipPath>
  </defs>
  <path id="Path_1" data-name="Path 1" class="cls-3" d="m82.19,8.03v11.86h5.33v-7.06h10.38v34.61h-5.93v5h17.45v-5h-5.92V12.84h10.38v7.06h5.33v-11.86h-37.03Z"/>
  <g id="Group_3" data-name="Group 3">
    <g class="cls-2">
      <g id="Group_2" data-name="Group 2">
        <path id="Path_2" data-name="Path 2" class="cls-3" d="m147.05,26.13c-6.34-6.26-16.54-6.25-22.87.03-2.82,3.03-4.37,7.03-4.32,11.18,0,9.21,6.62,15.89,15.75,15.89,4.29.08,8.43-1.61,11.43-4.69,5.75-6.36,5.75-16.04,0-22.4m-11.43,22.25c-5.92,0-10.06-4.54-10.06-11.05s4.14-11.05,10.06-11.05,10.06,4.54,10.06,11.05-4.14,11.05-10.06,11.05"/>
        <path id="Path_3" data-name="Path 3" class="cls-3" d="m185.27,47.81v-25.81h-10.41v4.91h4.94v16.07c-3.38,3.44-6.51,5.11-9.57,5.11-2.37,0-3.81-.73-4.67-2.39-.59-1.2-.87-2.53-.81-3.87v-19.84h-10.27v4.91h4.8v15.85c-.06,2.18.44,4.35,1.45,6.29h0c1.61,2.77,4.41,4.17,8.3,4.17s7.63-2.04,10.91-5.63v5.07h10.13v-4.84h-4.79Z"/>
        <path id="Path_4" data-name="Path 4" class="cls-3" d="m243.96,47.82v-15.92c.05-2.03-.32-4.04-1.09-5.92-1.49-3.06-4.26-4.54-8.45-4.54-3.42,0-7.19,1.95-10.92,5.64-.19-.67-.46-1.3-.81-1.9-1.48-2.49-4.08-3.75-7.74-3.75-1.77,0-6.26.56-10.63,5.6v-5.04h-10.07v4.91h4.8v20.9h-4.8v4.84h14.92v-4.84h-4.66v-16.14c3.38-3.53,6.23-5.11,9.22-5.11,2.37,0,3.8.81,4.51,2.55.39,1.19.58,2.45.55,3.71v15h-4.8v4.84h14.92v-4.84h-4.65v-16.29c3.38-3.43,6.22-4.97,9.22-4.97,2.32,0,3.73.81,4.44,2.55.39,1.19.58,2.45.55,3.71v15h-4.65v4.84h14.92v-4.84h-4.79Z"/>
        <path id="Path_5" data-name="Path 5" class="cls-3" d="m277.62,25.82c-2.68-2.92-6.5-4.53-10.46-4.39-4.21-.1-8.25,1.66-11.04,4.81-2.65,3.1-4.07,7.07-4.01,11.15-.13,4.26,1.49,8.39,4.5,11.41,3.2,2.98,7.45,4.56,11.81,4.41,3.85.03,7.63-.98,10.95-2.94l.13-.08.49-5.46-.51.29c-3.48,2.02-6.44,3.27-10.43,3.27-6.48,0-10.46-3.29-11.22-9.26h23.02l.06-.22c.23-.95.32-1.92.29-2.9.08-3.69-1.2-7.28-3.59-10.09m-10.74.38c5.12,0,8.3,3.04,8.77,8.35h-17.73c.76-5.01,4.32-8.35,8.96-8.35"/>
        <path id="Path_6" data-name="Path 6" class="cls-3" d="m304.28,46.3c-1.65,1.04-3.54,1.65-5.49,1.79-1.72,0-2.75-.44-3.26-1.4-.34-.67-.5-1.43-.45-2.18v-17.6h9.24v-4.91h-9.24v-9.31l-5.4,2.15v7.17h-5.57v4.91h5.57v18.31c-.07,1.48.21,2.95.81,4.3h0c1.24,2.42,3.63,3.69,6.9,3.69,2.3,0,4.56-.6,6.56-1.73l.14-.07.74-5.42-.54.31Z"/>
        <path id="Path_7" data-name="Path 7" class="cls-3" d="m316.34,14.92c2.33-.03,4.2-1.94,4.17-4.27-.03-2.26-1.84-4.1-4.1-4.17-2.32.06-4.19,1.93-4.25,4.25.03,2.3,1.89,4.15,4.18,4.18"/>
        <path id="Path_8" data-name="Path 8" class="cls-3" d="m319.74,47.82v-25.81h-10.55v4.91h5.08v20.9h-5.08v4.84h15.63v-4.84h-5.08Z"/>
        <path id="Path_9" data-name="Path 9" class="cls-3" d="m342.63,34.57c-5.07-1.3-7.46-2.17-7.46-4.5,0-1.97,2.19-4.07,6.26-4.07,1.68-.09,3.36.21,4.9.88-.19.5-.28,1.04-.27,1.57-.03,1.86,1.46,3.39,3.32,3.41.08,0,.15,0,.23,0,1.82-.01,3.29-1.5,3.28-3.32,0-.07,0-.15,0-.22-.01-1.4-.61-2.73-1.64-3.67-1.97-1.97-5.67-3.19-9.67-3.19-7.7,0-11.73,4.52-11.73,8.98,0,5.9,4.98,7.62,12.01,9.39,4.47,1.1,6.89,2.15,6.89,4.57,0,2.56-2.89,4.35-7.03,4.35-2.2.08-4.39-.43-6.32-1.49.26-.54.4-1.13.42-1.73.05-1.84-1.4-3.37-3.24-3.41-.1,0-.2,0-.31,0-1.9.06-3.4,1.65-3.34,3.56,0,.02,0,.04,0,.06,0,1.5.62,2.93,1.71,3.95,2.09,2.09,6.64,3.54,11.08,3.54,3.04.08,6.03-.77,8.58-2.43,2.33-1.52,3.73-4.12,3.72-6.9,0-6.05-5.15-7.8-11.37-9.32"/>
        <rect id="Rectangle_8" data-name="Rectangle 8" class="cls-4" x="14.74" y="44.22" width="14.74" height="14.74"/>
        <rect id="Rectangle_9" data-name="Rectangle 9" class="cls-4" y="29.48" width="14.74" height="14.74"/>
        <path id="Path_10" data-name="Path 10" class="cls-4" d="m29.48,14.74h-14.74v14.74h14.74v14.74h14.74V14.74h-14.74Z"/>
        <path id="Path_11" data-name="Path 11" class="cls-5" d="m44.23,0H0v29.48h14.74v-14.74h29.48v29.48h-14.74v14.74h29.48V0h-14.74Z"/>
      </g>
    </g>
  </g>
</svg>